<mxfile host="Electron" agent="Mozilla/5.0 (Windows NT 10.0; Win64; x64) AppleWebKit/537.36 (KHTML, like Gecko) draw.io/24.7.17 Chrome/128.0.6613.36 Electron/32.0.1 Safari/537.36" version="24.7.17">
  <diagram name="Страница — 1" id="expUfQ6NnyS6GaPOLOjV">
    <mxGraphModel dx="195" dy="2289" grid="0" gridSize="10" guides="0" tooltips="1" connect="1" arrows="1" fold="1" page="0" pageScale="1" pageWidth="827" pageHeight="1169" math="0" shadow="0">
      <root>
        <mxCell id="0" />
        <mxCell id="1" parent="0" />
        <object placeholders="1" c4Name="System name" c4Type="SystemScopeBoundary" c4Application="Software System" label="&lt;font style=&quot;font-size: 16px&quot;&gt;&lt;b&gt;&lt;div style=&quot;text-align: left&quot;&gt;%c4Name%&lt;/div&gt;&lt;/b&gt;&lt;/font&gt;&lt;div style=&quot;text-align: left&quot;&gt;[%c4Application%]&lt;/div&gt;" id="6nfGbXrICxOpppsNLd3v-1">
          <mxCell style="rounded=1;fontSize=11;whiteSpace=wrap;html=1;dashed=1;arcSize=20;fillColor=none;strokeColor=#666666;fontColor=#333333;labelBackgroundColor=none;align=left;verticalAlign=bottom;labelBorderColor=none;spacingTop=0;spacing=10;dashPattern=8 4;metaEdit=1;rotatable=0;perimeter=rectanglePerimeter;noLabel=0;labelPadding=0;allowArrows=0;connectable=0;expand=0;recursiveResize=0;editable=1;pointerEvents=0;absoluteArcSize=1;points=[[0.25,0,0],[0.5,0,0],[0.75,0,0],[1,0.25,0],[1,0.5,0],[1,0.75,0],[0.75,1,0],[0.5,1,0],[0.25,1,0],[0,0.75,0],[0,0.5,0],[0,0.25,0]];" parent="1" vertex="1">
            <mxGeometry x="1328" y="-810" width="1721" height="1760" as="geometry" />
          </mxCell>
        </object>
        <mxCell id="6nfGbXrICxOpppsNLd3v-14" value="" style="group" parent="1" vertex="1" connectable="0">
          <mxGeometry x="2051" y="99" width="340" height="230" as="geometry" />
        </mxCell>
        <object placeholders="1" c4Name="Message Broker" c4Type="ContainerScopeBoundary" c4Application="Container" label="&lt;font style=&quot;font-size: 16px&quot;&gt;&lt;b&gt;&lt;div style=&quot;text-align: left&quot;&gt;%c4Name%&lt;/div&gt;&lt;/b&gt;&lt;/font&gt;&lt;div style=&quot;text-align: left&quot;&gt;[%c4Application%]&lt;/div&gt;" id="6nfGbXrICxOpppsNLd3v-11">
          <mxCell style="rounded=1;fontSize=11;whiteSpace=wrap;html=1;dashed=1;arcSize=20;fillColor=none;strokeColor=#666666;fontColor=#333333;labelBackgroundColor=none;align=left;verticalAlign=bottom;labelBorderColor=none;spacingTop=0;spacing=10;dashPattern=8 4;metaEdit=1;rotatable=0;perimeter=rectanglePerimeter;noLabel=0;labelPadding=0;allowArrows=0;connectable=0;expand=0;recursiveResize=0;editable=1;pointerEvents=0;absoluteArcSize=1;points=[[0.25,0,0],[0.5,0,0],[0.75,0,0],[1,0.25,0],[1,0.5,0],[1,0.75,0],[0.75,1,0],[0.5,1,0],[0.25,1,0],[0,0.75,0],[0,0.5,0],[0,0.25,0]];" parent="6nfGbXrICxOpppsNLd3v-14" vertex="1">
            <mxGeometry width="340" height="230" as="geometry" />
          </mxCell>
        </object>
        <object placeholders="1" c4Name="Kafka" c4Type="Component" c4Technology="Java, Scala" c4Description="" label="&lt;font style=&quot;font-size: 16px&quot;&gt;&lt;b&gt;%c4Name%&lt;/b&gt;&lt;/font&gt;&lt;div&gt;[%c4Type%: %c4Technology%]&lt;/div&gt;&lt;br&gt;&lt;div&gt;&lt;font style=&quot;font-size: 11px&quot;&gt;%c4Description%&lt;/font&gt;&lt;/div&gt;" id="6nfGbXrICxOpppsNLd3v-13">
          <mxCell style="rounded=1;whiteSpace=wrap;html=1;labelBackgroundColor=none;fillColor=#63BEF2;fontColor=#ffffff;align=center;arcSize=8;strokeColor=#2086C9;metaEdit=1;resizable=0;points=[[0.25,0,0],[0.5,0,0],[0.75,0,0],[1,0.25,0],[1,0.5,0],[1,0.75,0],[0.75,1,0],[0.5,1,0],[0.25,1,0],[0,0.75,0],[0,0.5,0],[0,0.25,0]];" parent="6nfGbXrICxOpppsNLd3v-14" vertex="1">
            <mxGeometry x="50" y="40" width="240" height="120" as="geometry" />
          </mxCell>
        </object>
        <object placeholders="1" c4Type="Relationship" c4Description="Сигнал с устройства" label="&lt;div style=&quot;text-align: left&quot;&gt;&lt;div style=&quot;text-align: center&quot;&gt;&lt;b&gt;%c4Description%&lt;/b&gt;&lt;/div&gt;" id="6nfGbXrICxOpppsNLd3v-40">
          <mxCell style="endArrow=blockThin;html=1;fontSize=10;fontColor=#404040;strokeWidth=1;endFill=1;strokeColor=#82b366;elbow=vertical;metaEdit=1;endSize=14;startSize=14;jumpStyle=arc;jumpSize=16;rounded=0;edgeStyle=orthogonalEdgeStyle;curved=1;fillColor=#d5e8d4;" parent="1" source="6nfGbXrICxOpppsNLd3v-13" target="6nfGbXrICxOpppsNLd3v-8" edge="1">
            <mxGeometry x="-0.0106" y="-19" width="240" relative="1" as="geometry">
              <mxPoint x="1640" y="380" as="sourcePoint" />
              <mxPoint x="1880" y="380" as="targetPoint" />
              <Array as="points">
                <mxPoint x="2632" y="232" />
                <mxPoint x="2632" y="232" />
              </Array>
              <mxPoint as="offset" />
            </mxGeometry>
          </mxCell>
        </object>
        <object placeholders="1" c4Type="Relationship" c4Description="Состояние устройств дома" label="&lt;div style=&quot;text-align: left&quot;&gt;&lt;div style=&quot;text-align: center&quot;&gt;&lt;b&gt;%c4Description%&lt;/b&gt;&lt;/div&gt;" id="6nfGbXrICxOpppsNLd3v-41">
          <mxCell style="endArrow=blockThin;html=1;fontSize=10;fontColor=#404040;strokeWidth=1;endFill=1;strokeColor=#6c8ebf;elbow=vertical;metaEdit=1;endSize=14;startSize=14;jumpStyle=arc;jumpSize=16;rounded=0;edgeStyle=orthogonalEdgeStyle;curved=1;fillColor=#dae8fc;" parent="1" source="6nfGbXrICxOpppsNLd3v-8" target="6nfGbXrICxOpppsNLd3v-13" edge="1">
            <mxGeometry x="0.0106" y="-20" width="240" relative="1" as="geometry">
              <mxPoint x="2090" y="180" as="sourcePoint" />
              <mxPoint x="2100" y="155" as="targetPoint" />
              <mxPoint x="-1" as="offset" />
              <Array as="points">
                <mxPoint x="2486" y="167" />
                <mxPoint x="2486" y="167" />
              </Array>
            </mxGeometry>
          </mxCell>
        </object>
        <object placeholders="1" c4Type="Relationship" c4Description="Данные мониторинга" label="&lt;div style=&quot;text-align: left&quot;&gt;&lt;div style=&quot;text-align: center&quot;&gt;&lt;b&gt;%c4Description%&lt;/b&gt;&lt;/div&gt;" id="6nfGbXrICxOpppsNLd3v-45">
          <mxCell style="endArrow=blockThin;html=1;fontSize=10;fontColor=#404040;strokeWidth=1;endFill=1;strokeColor=#d79b00;elbow=vertical;metaEdit=1;endSize=14;startSize=14;jumpStyle=arc;jumpSize=16;rounded=0;edgeStyle=orthogonalEdgeStyle;curved=1;fillColor=#ffe6cc;" parent="1" source="6nfGbXrICxOpppsNLd3v-13" target="6nfGbXrICxOpppsNLd3v-16" edge="1">
            <mxGeometry x="0.192" y="-85" width="240" relative="1" as="geometry">
              <mxPoint x="2120" y="240" as="sourcePoint" />
              <mxPoint x="1700" y="180" as="targetPoint" />
              <Array as="points">
                <mxPoint x="2303" y="-426" />
              </Array>
              <mxPoint as="offset" />
            </mxGeometry>
          </mxCell>
        </object>
        <object placeholders="1" c4Type="Relationship" c4Description="Данные мониторинга" label="&lt;div style=&quot;text-align: left&quot;&gt;&lt;div style=&quot;text-align: center&quot;&gt;&lt;b&gt;%c4Description%&lt;/b&gt;&lt;/div&gt;" id="6nfGbXrICxOpppsNLd3v-52">
          <mxCell style="endArrow=blockThin;html=1;fontSize=10;fontColor=#404040;strokeWidth=1;endFill=1;strokeColor=#d79b00;elbow=vertical;metaEdit=1;endSize=14;startSize=14;jumpStyle=arc;jumpSize=16;rounded=0;edgeStyle=orthogonalEdgeStyle;curved=1;fillColor=#ffe6cc;" parent="1" source="6nfGbXrICxOpppsNLd3v-6" target="6nfGbXrICxOpppsNLd3v-13" edge="1">
            <mxGeometry x="-0.2489" width="240" relative="1" as="geometry">
              <mxPoint x="1480" y="720" as="sourcePoint" />
              <mxPoint x="1480" y="820" as="targetPoint" />
              <Array as="points">
                <mxPoint x="2326" y="425" />
                <mxPoint x="2326" y="425" />
              </Array>
              <mxPoint as="offset" />
            </mxGeometry>
          </mxCell>
        </object>
        <object placeholders="1" c4Type="Relationship" c4Description="Состояние устройств дома" label="&lt;div style=&quot;text-align: left&quot;&gt;&lt;div style=&quot;text-align: center&quot;&gt;&lt;b&gt;%c4Description%&lt;/b&gt;&lt;/div&gt;" id="6nfGbXrICxOpppsNLd3v-53">
          <mxCell style="endArrow=blockThin;html=1;fontSize=10;fontColor=#404040;strokeWidth=1;endFill=1;strokeColor=#6c8ebf;elbow=vertical;metaEdit=1;endSize=14;startSize=14;jumpStyle=arc;jumpSize=16;rounded=0;edgeStyle=orthogonalEdgeStyle;curved=1;fillColor=#dae8fc;" parent="1" source="6nfGbXrICxOpppsNLd3v-13" target="6nfGbXrICxOpppsNLd3v-6" edge="1">
            <mxGeometry x="-0.0026" width="240" relative="1" as="geometry">
              <mxPoint x="1480" y="600" as="sourcePoint" />
              <mxPoint x="2140" y="810" as="targetPoint" />
              <Array as="points">
                <mxPoint x="2249" y="429" />
                <mxPoint x="2249" y="429" />
              </Array>
              <mxPoint as="offset" />
            </mxGeometry>
          </mxCell>
        </object>
        <object placeholders="1" c4Type="Relationship" c4Description="Сигнал к устройству" label="&lt;div style=&quot;text-align: left&quot;&gt;&lt;div style=&quot;text-align: center&quot;&gt;&lt;b&gt;%c4Description%&lt;/b&gt;&lt;/div&gt;" id="6nfGbXrICxOpppsNLd3v-57">
          <mxCell style="endArrow=none;html=1;fontSize=10;fontColor=#404040;strokeWidth=1;endFill=0;strokeColor=#9673a6;elbow=vertical;metaEdit=1;endSize=14;startSize=14;jumpStyle=arc;jumpSize=16;rounded=0;edgeStyle=orthogonalEdgeStyle;curved=1;startArrow=classic;startFill=1;fillColor=#e1d5e7;" parent="1" source="6nfGbXrICxOpppsNLd3v-13" target="6nfGbXrICxOpppsNLd3v-49" edge="1">
            <mxGeometry x="-0.1927" y="56" width="240" relative="1" as="geometry">
              <mxPoint x="1480" y="720" as="sourcePoint" />
              <mxPoint x="2120" y="970" as="targetPoint" />
              <Array as="points">
                <mxPoint x="1798" y="231" />
              </Array>
              <mxPoint as="offset" />
            </mxGeometry>
          </mxCell>
        </object>
        <object placeholders="1" c4Name="Пользователь" c4Type="Person" c4Description="" label="&lt;font style=&quot;font-size: 16px&quot;&gt;&lt;b&gt;%c4Name%&lt;/b&gt;&lt;/font&gt;&lt;div&gt;[%c4Type%]&lt;/div&gt;&lt;br&gt;&lt;div&gt;&lt;font style=&quot;font-size: 11px&quot;&gt;&lt;font color=&quot;#cccccc&quot;&gt;%c4Description%&lt;/font&gt;&lt;/div&gt;" id="6nfGbXrICxOpppsNLd3v-26">
          <mxCell style="html=1;fontSize=11;dashed=0;whiteSpace=wrap;fillColor=#083F75;strokeColor=#06315C;fontColor=#ffffff;shape=mxgraph.c4.person2;align=center;metaEdit=1;points=[[0.5,0,0],[1,0.5,0],[1,0.75,0],[0.75,1,0],[0.5,1,0],[0.25,1,0],[0,0.75,0],[0,0.5,0]];resizable=0;" parent="1" vertex="1">
            <mxGeometry x="2161" y="-1309" width="200" height="180" as="geometry" />
          </mxCell>
        </object>
        <object placeholders="1" c4Type="Relationship" c4Description="Просмотр страниц" label="&lt;div style=&quot;text-align: left&quot;&gt;&lt;div style=&quot;text-align: center&quot;&gt;&lt;b&gt;%c4Description%&lt;/b&gt;&lt;/div&gt;" id="6nfGbXrICxOpppsNLd3v-28">
          <mxCell style="endArrow=blockThin;html=1;fontSize=10;fontColor=#404040;strokeWidth=1;endFill=1;strokeColor=#828282;elbow=vertical;metaEdit=1;endSize=14;startSize=14;jumpStyle=arc;jumpSize=16;rounded=0;edgeStyle=orthogonalEdgeStyle;curved=1;" parent="1" source="6nfGbXrICxOpppsNLd3v-26" target="6nfGbXrICxOpppsNLd3v-31" edge="1">
            <mxGeometry width="240" relative="1" as="geometry">
              <mxPoint x="1370" y="-705.3731343283582" as="sourcePoint" />
              <mxPoint x="1530" y="-760.8955223880597" as="targetPoint" />
            </mxGeometry>
          </mxCell>
        </object>
        <mxCell id="6nfGbXrICxOpppsNLd3v-61" value="" style="group" parent="1" vertex="1" connectable="0">
          <mxGeometry x="1443" y="81" width="340" height="230" as="geometry" />
        </mxCell>
        <object placeholders="1" c4Name="ProxyServer" c4Type="ContainerScopeBoundary" c4Application="Container" label="&lt;font style=&quot;font-size: 16px&quot;&gt;&lt;b&gt;&lt;div style=&quot;text-align: left&quot;&gt;%c4Name%&lt;/div&gt;&lt;/b&gt;&lt;/font&gt;&lt;div style=&quot;text-align: left&quot;&gt;[%c4Application%]&lt;/div&gt;" id="6nfGbXrICxOpppsNLd3v-62">
          <mxCell style="rounded=1;fontSize=11;whiteSpace=wrap;html=1;dashed=1;arcSize=20;fillColor=none;strokeColor=#666666;fontColor=#333333;labelBackgroundColor=none;align=left;verticalAlign=bottom;labelBorderColor=none;spacingTop=0;spacing=10;dashPattern=8 4;metaEdit=1;rotatable=0;perimeter=rectanglePerimeter;noLabel=0;labelPadding=0;allowArrows=0;connectable=0;expand=0;recursiveResize=0;editable=1;pointerEvents=0;absoluteArcSize=1;points=[[0.25,0,0],[0.5,0,0],[0.75,0,0],[1,0.25,0],[1,0.5,0],[1,0.75,0],[0.75,1,0],[0.5,1,0],[0.25,1,0],[0,0.75,0],[0,0.5,0],[0,0.25,0]];" parent="6nfGbXrICxOpppsNLd3v-61" vertex="1">
            <mxGeometry width="340" height="230" as="geometry" />
          </mxCell>
        </object>
        <object placeholders="1" c4Name="ProxyServer" c4Type="Component" c4Technology="Nginx" c4Description="Проксирование запросов и аутентификация устройств" label="&lt;font style=&quot;font-size: 16px&quot;&gt;&lt;b&gt;%c4Name%&lt;/b&gt;&lt;/font&gt;&lt;div&gt;[%c4Type%: %c4Technology%]&lt;/div&gt;&lt;br&gt;&lt;div&gt;&lt;font style=&quot;font-size: 11px&quot;&gt;%c4Description%&lt;/font&gt;&lt;/div&gt;" id="6nfGbXrICxOpppsNLd3v-63">
          <mxCell style="rounded=1;whiteSpace=wrap;html=1;labelBackgroundColor=none;fillColor=#63BEF2;fontColor=#ffffff;align=center;arcSize=8;strokeColor=#2086C9;metaEdit=1;resizable=0;points=[[0.25,0,0],[0.5,0,0],[0.75,0,0],[1,0.25,0],[1,0.5,0],[1,0.75,0],[0.75,1,0],[0.5,1,0],[0.25,1,0],[0,0.75,0],[0,0.5,0],[0,0.25,0]];" parent="6nfGbXrICxOpppsNLd3v-61" vertex="1">
            <mxGeometry x="50" y="40" width="240" height="120" as="geometry" />
          </mxCell>
        </object>
        <object placeholders="1" c4Type="Relationship" c4Description="Сигнал с устройства" label="&lt;div style=&quot;text-align: left&quot;&gt;&lt;div style=&quot;text-align: center&quot;&gt;&lt;b&gt;%c4Description%&lt;/b&gt;&lt;/div&gt;" id="6nfGbXrICxOpppsNLd3v-64">
          <mxCell style="endArrow=blockThin;html=1;fontSize=10;fontColor=#404040;strokeWidth=1;endFill=1;strokeColor=#82b366;elbow=vertical;metaEdit=1;endSize=14;startSize=14;jumpStyle=arc;jumpSize=16;rounded=0;edgeStyle=orthogonalEdgeStyle;curved=1;startArrow=none;startFill=0;fillColor=#d5e8d4;" parent="1" source="6nfGbXrICxOpppsNLd3v-63" target="6nfGbXrICxOpppsNLd3v-13" edge="1">
            <mxGeometry x="0.3533" y="12" width="240" relative="1" as="geometry">
              <mxPoint x="1640" y="500" as="sourcePoint" />
              <mxPoint x="1960" y="320" as="targetPoint" />
              <Array as="points">
                <mxPoint x="1919" y="191" />
                <mxPoint x="1919" y="191" />
              </Array>
              <mxPoint as="offset" />
            </mxGeometry>
          </mxCell>
        </object>
        <object placeholders="1" c4Type="Relationship" c4Description="Сигнал к устройству" label="&lt;div style=&quot;text-align: left&quot;&gt;&lt;div style=&quot;text-align: center&quot;&gt;&lt;b&gt;%c4Description%&lt;/b&gt;&lt;/div&gt;" id="6nfGbXrICxOpppsNLd3v-65">
          <mxCell style="endArrow=blockThin;html=1;fontSize=10;fontColor=#404040;strokeWidth=1;endFill=1;strokeColor=#9673a6;elbow=vertical;metaEdit=1;endSize=14;startSize=14;jumpStyle=arc;jumpSize=16;rounded=0;edgeStyle=orthogonalEdgeStyle;curved=1;startArrow=none;startFill=0;fillColor=#e1d5e7;" parent="1" source="6nfGbXrICxOpppsNLd3v-13" target="6nfGbXrICxOpppsNLd3v-63" edge="1">
            <mxGeometry x="0.3804" y="-19" width="240" relative="1" as="geometry">
              <mxPoint x="1330" y="180" as="sourcePoint" />
              <mxPoint x="1690" y="160" as="targetPoint" />
              <Array as="points">
                <mxPoint x="1913" y="159" />
                <mxPoint x="1913" y="159" />
              </Array>
              <mxPoint as="offset" />
            </mxGeometry>
          </mxCell>
        </object>
        <object placeholders="1" c4Name="Датчики и устройства" c4Type="Device" c4Description="" label="&lt;font style=&quot;font-size: 16px&quot;&gt;&lt;b&gt;%c4Name%&lt;/b&gt;&lt;/font&gt;&lt;div&gt;[%c4Type%]&lt;/div&gt;&lt;br&gt;&lt;div&gt;&lt;font style=&quot;font-size: 11px&quot;&gt;&lt;font color=&quot;#cccccc&quot;&gt;%c4Description%&lt;/font&gt;&lt;/div&gt;" id="6nfGbXrICxOpppsNLd3v-66">
          <mxCell style="rounded=1;whiteSpace=wrap;html=1;labelBackgroundColor=none;fillColor=#8C8496;fontColor=#ffffff;align=center;arcSize=10;strokeColor=#736782;metaEdit=1;resizable=0;points=[[0.25,0,0],[0.5,0,0],[0.75,0,0],[1,0.25,0],[1,0.5,0],[1,0.75,0],[0.75,1,0],[0.5,1,0],[0.25,1,0],[0,0.75,0],[0,0.5,0],[0,0.25,0]];" parent="1" vertex="1">
            <mxGeometry x="995" y="120" width="240" height="120" as="geometry" />
          </mxCell>
        </object>
        <object placeholders="1" c4Type="Relationship" c4Technology="HTTP" c4Description="" label="&lt;div style=&quot;text-align: left&quot;&gt;&lt;div style=&quot;text-align: center&quot;&gt;&lt;b&gt;%c4Description%&lt;/b&gt;&lt;/div&gt;&lt;div style=&quot;text-align: center&quot;&gt;[%c4Technology%]&lt;/div&gt;&lt;/div&gt;" id="6nfGbXrICxOpppsNLd3v-68">
          <mxCell style="endArrow=blockThin;html=1;fontSize=10;fontColor=#404040;strokeWidth=1;endFill=1;strokeColor=#828282;elbow=vertical;metaEdit=1;endSize=14;startSize=14;jumpStyle=arc;jumpSize=16;rounded=0;edgeStyle=orthogonalEdgeStyle;curved=1;startArrow=classic;startFill=1;" parent="1" source="6nfGbXrICxOpppsNLd3v-66" target="6nfGbXrICxOpppsNLd3v-63" edge="1">
            <mxGeometry width="240" relative="1" as="geometry">
              <mxPoint x="1550" y="180" as="sourcePoint" />
              <mxPoint x="1790" y="180" as="targetPoint" />
            </mxGeometry>
          </mxCell>
        </object>
        <object placeholders="1" c4Type="Relationship" c4Description="Просмотр мониторинга и телеметрии" label="&lt;div style=&quot;text-align: left&quot;&gt;&lt;div style=&quot;text-align: center&quot;&gt;&lt;b&gt;%c4Description%&lt;/b&gt;&lt;/div&gt;" id="6nfGbXrICxOpppsNLd3v-24">
          <mxCell style="endArrow=blockThin;html=1;fontSize=10;fontColor=#404040;strokeWidth=1;endFill=1;strokeColor=#828282;elbow=vertical;metaEdit=1;endSize=14;startSize=14;jumpStyle=arc;jumpSize=16;rounded=0;edgeStyle=orthogonalEdgeStyle;curved=1;" parent="1" source="6nfGbXrICxOpppsNLd3v-17" target="6nfGbXrICxOpppsNLd3v-16" edge="1">
            <mxGeometry x="-0.0882" y="-51" width="240" relative="1" as="geometry">
              <mxPoint x="2070" y="-409.77053899809766" as="sourcePoint" />
              <mxPoint x="1890" y="-340.6258084971464" as="targetPoint" />
              <mxPoint as="offset" />
            </mxGeometry>
          </mxCell>
        </object>
        <object c4Name="WebSite" c4Type="Component" c4Technology="Angular" c4Description="" label="&lt;font style=&quot;font-size: 16px&quot;&gt;&lt;b&gt;%c4Name%&lt;/b&gt;&lt;/font&gt;&lt;div&gt;[%c4Type%: %c4Technology%]&lt;/div&gt;&lt;br&gt;&lt;div&gt;&lt;font style=&quot;font-size: 11px&quot;&gt;%c4Description%&lt;/font&gt;&lt;/div&gt;" placeholders="1" id="6nfGbXrICxOpppsNLd3v-31">
          <mxCell style="rounded=1;whiteSpace=wrap;html=1;labelBackgroundColor=none;fillColor=#63BEF2;fontColor=#ffffff;align=center;arcSize=6;strokeColor=#2086C9;metaEdit=1;resizable=0;points=[[0.25,0,0],[0.5,0,0],[0.75,0,0],[1,0.25,0],[1,0.5,0],[1,0.75,0],[0.75,1,0],[0.5,1,0],[0.25,1,0],[0,0.75,0],[0,0.5,0],[0,0.25,0]];" parent="1" vertex="1">
            <mxGeometry x="2140" y="-1023.0047132757268" width="240" height="120" as="geometry" />
          </mxCell>
        </object>
        <object placeholders="1" c4Type="Relationship" c4Technology="HTTP" c4Description="" label="&lt;div style=&quot;text-align: left&quot;&gt;&lt;div style=&quot;text-align: center&quot;&gt;&lt;b&gt;%c4Description%&lt;/b&gt;&lt;/div&gt;&lt;div style=&quot;text-align: center&quot;&gt;[%c4Technology%]&lt;/div&gt;&lt;/div&gt;" id="6nfGbXrICxOpppsNLd3v-69">
          <mxCell style="endArrow=classic;html=1;fontSize=10;fontColor=#404040;strokeWidth=1;endFill=1;strokeColor=#828282;elbow=vertical;metaEdit=1;endSize=14;startSize=14;jumpStyle=arc;jumpSize=16;rounded=0;edgeStyle=orthogonalEdgeStyle;curved=1;startArrow=none;startFill=0;" parent="1" source="6nfGbXrICxOpppsNLd3v-31" target="6nfGbXrICxOpppsNLd3v-17" edge="1">
            <mxGeometry width="240" relative="1" as="geometry">
              <mxPoint x="2530" y="-820" as="sourcePoint" />
              <mxPoint x="2830" y="-820" as="targetPoint" />
            </mxGeometry>
          </mxCell>
        </object>
        <object c4Name="APIGateway" c4Type="Component" c4Technology="Nginx" c4Description="" label="&lt;font style=&quot;font-size: 16px&quot;&gt;&lt;b&gt;%c4Name%&lt;/b&gt;&lt;/font&gt;&lt;div&gt;[%c4Type%: %c4Technology%]&lt;/div&gt;&lt;br&gt;&lt;div&gt;&lt;font style=&quot;font-size: 11px&quot;&gt;%c4Description%&lt;/font&gt;&lt;/div&gt;" placeholders="1" id="6nfGbXrICxOpppsNLd3v-17">
          <mxCell style="rounded=1;whiteSpace=wrap;html=1;labelBackgroundColor=none;fillColor=#63BEF2;fontColor=#ffffff;align=center;arcSize=6;strokeColor=#2086C9;metaEdit=1;resizable=0;points=[[0.25,0,0],[0.5,0,0],[0.75,0,0],[1,0.25,0],[1,0.5,0],[1,0.75,0],[0.75,1,0],[0.5,1,0],[0.25,1,0],[0,0.75,0],[0,0.5,0],[0,0.25,0]];" parent="1" vertex="1">
            <mxGeometry x="2139" y="-740.999320456563" width="240" height="120" as="geometry" />
          </mxCell>
        </object>
        <object placeholders="1" c4Type="Relationship" c4Description="Управление устройствами" label="&lt;div style=&quot;text-align: left&quot;&gt;&lt;div style=&quot;text-align: center&quot;&gt;&lt;b&gt;%c4Description%&lt;/b&gt;&lt;/div&gt;" id="6nfGbXrICxOpppsNLd3v-23">
          <mxCell style="endArrow=blockThin;html=1;fontSize=10;fontColor=#404040;strokeWidth=1;endFill=1;strokeColor=#828282;elbow=vertical;metaEdit=1;endSize=14;startSize=14;jumpStyle=arc;jumpSize=16;rounded=0;edgeStyle=orthogonalEdgeStyle;curved=1;" parent="1" source="6nfGbXrICxOpppsNLd3v-17" target="6nfGbXrICxOpppsNLd3v-4" edge="1">
            <mxGeometry x="-0.1167" y="57" width="240" relative="1" as="geometry">
              <mxPoint x="1599" y="-585.8327203551046" as="sourcePoint" />
              <mxPoint x="1839" y="-585.8327203551046" as="targetPoint" />
              <mxPoint as="offset" />
            </mxGeometry>
          </mxCell>
        </object>
        <mxCell id="mg4Z7l3rav3BL5mE1RxC-2" value="" style="group" parent="1" vertex="1" connectable="0">
          <mxGeometry x="1661" y="-549" width="408" height="475" as="geometry" />
        </mxCell>
        <object placeholders="1" c4Name="Сервис управления устройствами" c4Type="ContainerScopeBoundary" c4Application="Django" label="&lt;font style=&quot;font-size: 16px&quot;&gt;&lt;b&gt;&lt;div style=&quot;text-align: left&quot;&gt;%c4Name%&lt;/div&gt;&lt;/b&gt;&lt;/font&gt;&lt;div style=&quot;text-align: left&quot;&gt;[%c4Application%]&lt;/div&gt;" id="6nfGbXrICxOpppsNLd3v-2">
          <mxCell style="rounded=1;fontSize=11;whiteSpace=wrap;html=1;dashed=1;arcSize=20;fillColor=none;strokeColor=#666666;fontColor=#333333;labelBackgroundColor=none;align=left;verticalAlign=bottom;labelBorderColor=none;spacingTop=0;spacing=10;dashPattern=8 4;metaEdit=1;rotatable=0;perimeter=rectanglePerimeter;noLabel=0;labelPadding=0;allowArrows=0;connectable=0;expand=0;recursiveResize=0;editable=1;pointerEvents=0;absoluteArcSize=1;points=[[0.25,0,0],[0.5,0,0],[0.75,0,0],[1,0.25,0],[1,0.5,0],[1,0.75,0],[0.75,1,0],[0.5,1,0],[0.25,1,0],[0,0.75,0],[0,0.5,0],[0,0.25,0]];" parent="mg4Z7l3rav3BL5mE1RxC-2" vertex="1">
            <mxGeometry width="408" height="475" as="geometry" />
          </mxCell>
        </object>
        <object c4Name="DeviceControl" c4Type="Component" c4Technology="Django App" c4Description="Подключение новых, создание сценария поведения" label="&lt;font style=&quot;font-size: 16px&quot;&gt;&lt;b&gt;%c4Name%&lt;/b&gt;&lt;/font&gt;&lt;div&gt;[%c4Type%: %c4Technology%]&lt;/div&gt;&lt;br&gt;&lt;div&gt;&lt;font style=&quot;font-size: 11px&quot;&gt;%c4Description%&lt;/font&gt;&lt;/div&gt;" placeholders="1" id="6nfGbXrICxOpppsNLd3v-4">
          <mxCell style="rounded=1;whiteSpace=wrap;html=1;labelBackgroundColor=none;fillColor=#63BEF2;fontColor=#ffffff;align=center;arcSize=6;strokeColor=#2086C9;metaEdit=1;resizable=0;points=[[0.25,0,0],[0.5,0,0],[0.75,0,0],[1,0.25,0],[1,0.5,0],[1,0.75,0],[0.75,1,0],[0.5,1,0],[0.25,1,0],[0,0.75,0],[0,0.5,0],[0,0.25,0]];" parent="mg4Z7l3rav3BL5mE1RxC-2" vertex="1">
            <mxGeometry x="85" y="75.00018635383634" width="240" height="120" as="geometry" />
          </mxCell>
        </object>
        <object c4Name="UserStore" c4Type="Data Base" c4Technology="Postgres" c4Description="Хранение пользовательских данных" label="&lt;font style=&quot;font-size: 16px&quot;&gt;&lt;b&gt;%c4Name%&lt;/b&gt;&lt;/font&gt;&lt;div&gt;[%c4Type%: %c4Technology%]&lt;/div&gt;&lt;br&gt;&lt;div&gt;&lt;font style=&quot;font-size: 11px&quot;&gt;%c4Description%&lt;/font&gt;&lt;/div&gt;" placeholders="1" id="6nfGbXrICxOpppsNLd3v-46">
          <mxCell style="rounded=1;whiteSpace=wrap;html=1;labelBackgroundColor=none;fillColor=#63BEF2;fontColor=#ffffff;align=center;arcSize=6;strokeColor=#2086C9;metaEdit=1;resizable=0;points=[[0.25,0,0],[0.5,0,0],[0.75,0,0],[1,0.25,0],[1,0.5,0],[1,0.75,0],[0.75,1,0],[0.5,1,0],[0.25,1,0],[0,0.75,0],[0,0.5,0],[0,0.25,0]];" parent="mg4Z7l3rav3BL5mE1RxC-2" vertex="1">
            <mxGeometry x="85" y="288.00211406467974" width="240" height="120" as="geometry" />
          </mxCell>
        </object>
        <object placeholders="1" c4Type="Relationship" c4Description="" label="&lt;div style=&quot;text-align: left&quot;&gt;&lt;div style=&quot;text-align: center&quot;&gt;&lt;b&gt;%c4Description%&lt;/b&gt;&lt;/div&gt;" id="6nfGbXrICxOpppsNLd3v-48">
          <mxCell style="endArrow=none;html=1;fontSize=10;fontColor=#404040;strokeWidth=1;endFill=0;strokeColor=#828282;elbow=vertical;metaEdit=1;endSize=14;startSize=14;jumpStyle=arc;jumpSize=16;rounded=0;edgeStyle=orthogonalEdgeStyle;curved=1;startArrow=classic;startFill=1;" parent="mg4Z7l3rav3BL5mE1RxC-2" source="6nfGbXrICxOpppsNLd3v-46" target="6nfGbXrICxOpppsNLd3v-4" edge="1">
            <mxGeometry width="240" relative="1" as="geometry">
              <mxPoint x="268" y="263.06" as="sourcePoint" />
              <mxPoint x="388" y="158" as="targetPoint" />
            </mxGeometry>
          </mxCell>
        </object>
        <object placeholders="1" c4Type="Relationship" c4Description="Состояние устройств дома" label="&lt;div style=&quot;text-align: left&quot;&gt;&lt;div style=&quot;text-align: center&quot;&gt;&lt;b&gt;%c4Description%&lt;/b&gt;&lt;/div&gt;" id="mg4Z7l3rav3BL5mE1RxC-7">
          <mxCell style="endArrow=blockThin;html=1;fontSize=10;fontColor=#404040;strokeWidth=1;endFill=1;strokeColor=#6c8ebf;elbow=vertical;metaEdit=1;endSize=14;startSize=14;jumpStyle=arc;jumpSize=16;rounded=0;edgeStyle=orthogonalEdgeStyle;curved=1;fillColor=#dae8fc;" parent="1" source="6nfGbXrICxOpppsNLd3v-13" target="6nfGbXrICxOpppsNLd3v-49" edge="1">
            <mxGeometry x="0.6132" y="-31" width="240" relative="1" as="geometry">
              <mxPoint x="2237" y="269" as="sourcePoint" />
              <mxPoint x="2315" y="611" as="targetPoint" />
              <Array as="points">
                <mxPoint x="2127" y="515" />
              </Array>
              <mxPoint x="-1" as="offset" />
            </mxGeometry>
          </mxCell>
        </object>
        <mxCell id="mg4Z7l3rav3BL5mE1RxC-9" value="" style="group" parent="1" vertex="1" connectable="0">
          <mxGeometry x="2455" y="-547" width="409" height="438" as="geometry" />
        </mxCell>
        <object c4Name="Monitoring" c4Type="Component" c4Technology="Django App" c4Description="" label="&lt;font style=&quot;font-size: 16px&quot;&gt;&lt;b&gt;%c4Name%&lt;/b&gt;&lt;/font&gt;&lt;div&gt;[%c4Type%: %c4Technology%]&lt;/div&gt;&lt;br&gt;&lt;div&gt;&lt;font style=&quot;font-size: 11px&quot;&gt;%c4Description%&lt;/font&gt;&lt;/div&gt;" placeholders="1" id="6nfGbXrICxOpppsNLd3v-16">
          <mxCell style="rounded=1;whiteSpace=wrap;html=1;labelBackgroundColor=none;fillColor=#63BEF2;fontColor=#ffffff;align=center;arcSize=6;strokeColor=#2086C9;metaEdit=1;resizable=0;points=[[0.25,0,0],[0.5,0,0],[0.75,0,0],[1,0.25,0],[1,0.5,0],[1,0.75,0],[0.75,1,0],[0.5,1,0],[0.25,1,0],[0,0.75,0],[0,0.5,0],[0,0.25,0]];" parent="mg4Z7l3rav3BL5mE1RxC-9" vertex="1">
            <mxGeometry x="85" y="61.0001863538364" width="240" height="120" as="geometry" />
          </mxCell>
        </object>
        <object placeholders="1" c4Name="Сервис мониторинга и телеметрии" c4Type="ContainerScopeBoundary" c4Application="Container" label="&lt;font style=&quot;font-size: 16px&quot;&gt;&lt;b&gt;&lt;div style=&quot;text-align: left&quot;&gt;%c4Name%&lt;/div&gt;&lt;/b&gt;&lt;/font&gt;&lt;div style=&quot;text-align: left&quot;&gt;[%c4Application%]&lt;/div&gt;" id="FQCdFdCesw2Uyg2GWY_A-3">
          <mxCell style="rounded=1;fontSize=11;whiteSpace=wrap;html=1;dashed=1;arcSize=20;fillColor=none;strokeColor=#666666;fontColor=#333333;labelBackgroundColor=none;align=left;verticalAlign=bottom;labelBorderColor=none;spacingTop=0;spacing=10;dashPattern=8 4;metaEdit=1;rotatable=0;perimeter=rectanglePerimeter;noLabel=0;labelPadding=0;allowArrows=0;connectable=0;expand=0;recursiveResize=0;editable=1;pointerEvents=0;absoluteArcSize=1;points=[[0.25,0,0],[0.5,0,0],[0.75,0,0],[1,0.25,0],[1,0.5,0],[1,0.75,0],[0.75,1,0],[0.5,1,0],[0.25,1,0],[0,0.75,0],[0,0.5,0],[0,0.25,0]];" parent="mg4Z7l3rav3BL5mE1RxC-9" vertex="1">
            <mxGeometry width="409" height="438" as="geometry" />
          </mxCell>
        </object>
        <object placeholders="1" c4Name="MonitoringData" c4Type="Component" c4Technology="Redis" c4Description="Хранение данных мониторинга и телеметрии" label="&lt;font style=&quot;font-size: 16px&quot;&gt;&lt;b&gt;%c4Name%&lt;/b&gt;&lt;/font&gt;&lt;div&gt;[%c4Type%: %c4Technology%]&lt;/div&gt;&lt;br&gt;&lt;div&gt;&lt;font style=&quot;font-size: 11px&quot;&gt;%c4Description%&lt;/font&gt;&lt;/div&gt;" id="FQCdFdCesw2Uyg2GWY_A-7">
          <mxCell style="rounded=1;whiteSpace=wrap;html=1;labelBackgroundColor=none;fillColor=#63BEF2;fontColor=#ffffff;align=center;arcSize=6;strokeColor=#2086C9;metaEdit=1;resizable=0;points=[[0.25,0,0],[0.5,0,0],[0.75,0,0],[1,0.25,0],[1,0.5,0],[1,0.75,0],[0.75,1,0],[0.5,1,0],[0.25,1,0],[0,0.75,0],[0,0.5,0],[0,0.25,0]];" parent="mg4Z7l3rav3BL5mE1RxC-9" vertex="1">
            <mxGeometry x="85" y="241" width="240" height="120" as="geometry" />
          </mxCell>
        </object>
        <object placeholders="1" c4Type="Relationship" c4Description="" label="&lt;div style=&quot;text-align: left&quot;&gt;&lt;div style=&quot;text-align: center&quot;&gt;&lt;b&gt;%c4Description%&lt;/b&gt;&lt;/div&gt;" id="FQCdFdCesw2Uyg2GWY_A-8">
          <mxCell style="endArrow=blockThin;html=1;fontSize=10;fontColor=#404040;strokeWidth=1;endFill=1;strokeColor=#828282;elbow=vertical;metaEdit=1;endSize=14;startSize=14;jumpStyle=arc;jumpSize=16;rounded=0;edgeStyle=orthogonalEdgeStyle;curved=1;" parent="mg4Z7l3rav3BL5mE1RxC-9" source="6nfGbXrICxOpppsNLd3v-16" target="FQCdFdCesw2Uyg2GWY_A-7" edge="1">
            <mxGeometry width="240" relative="1" as="geometry">
              <mxPoint x="82" y="1136" as="sourcePoint" />
              <mxPoint x="202" y="1136" as="targetPoint" />
            </mxGeometry>
          </mxCell>
        </object>
        <mxCell id="mg4Z7l3rav3BL5mE1RxC-15" value="" style="group" parent="1" vertex="1" connectable="0">
          <mxGeometry x="2565" y="-77" width="378" height="596" as="geometry" />
        </mxCell>
        <object placeholders="1" c4Name="OperationData" c4Type="Component" c4Technology="Redis" c4Description="Хранение текущего состояния устроуств" label="&lt;font style=&quot;font-size: 16px&quot;&gt;&lt;b&gt;%c4Name%&lt;/b&gt;&lt;/font&gt;&lt;div&gt;[%c4Type%: %c4Technology%]&lt;/div&gt;&lt;br&gt;&lt;div&gt;&lt;font style=&quot;font-size: 11px&quot;&gt;%c4Description%&lt;/font&gt;&lt;/div&gt;" id="6nfGbXrICxOpppsNLd3v-70">
          <mxCell style="rounded=1;whiteSpace=wrap;html=1;labelBackgroundColor=none;fillColor=#63BEF2;fontColor=#ffffff;align=center;arcSize=6;strokeColor=#2086C9;metaEdit=1;resizable=0;points=[[0.25,0,0],[0.5,0,0],[0.75,0,0],[1,0.25,0],[1,0.5,0],[1,0.75,0],[0.75,1,0],[0.5,1,0],[0.25,1,0],[0,0.75,0],[0,0.5,0],[0,0.25,0]];" parent="mg4Z7l3rav3BL5mE1RxC-15" vertex="1">
            <mxGeometry x="71" y="41" width="240" height="120" as="geometry" />
          </mxCell>
        </object>
        <object placeholders="1" c4Name="Сервис сбора данных" c4Type="ContainerScopeBoundary" c4Application="Spring Boot" label="&lt;font style=&quot;font-size: 16px&quot;&gt;&lt;b&gt;&lt;div style=&quot;text-align: left&quot;&gt;%c4Name%&lt;/div&gt;&lt;/b&gt;&lt;/font&gt;&lt;div style=&quot;text-align: left&quot;&gt;[%c4Application%]&lt;/div&gt;" id="6nfGbXrICxOpppsNLd3v-7">
          <mxCell style="rounded=1;fontSize=11;whiteSpace=wrap;html=1;dashed=1;arcSize=20;fillColor=none;strokeColor=#666666;fontColor=#333333;labelBackgroundColor=none;align=left;verticalAlign=bottom;labelBorderColor=none;spacingTop=0;spacing=10;dashPattern=8 4;metaEdit=1;rotatable=0;perimeter=rectanglePerimeter;noLabel=0;labelPadding=0;allowArrows=0;connectable=0;expand=0;recursiveResize=0;editable=1;pointerEvents=0;absoluteArcSize=1;points=[[0.25,0,0],[0.5,0,0],[0.75,0,0],[1,0.25,0],[1,0.5,0],[1,0.75,0],[0.75,1,0],[0.5,1,0],[0.25,1,0],[0,0.75,0],[0,0.5,0],[0,0.25,0]];" parent="mg4Z7l3rav3BL5mE1RxC-15" vertex="1">
            <mxGeometry width="378" height="596" as="geometry" />
          </mxCell>
        </object>
        <object placeholders="1" c4Name="DataProcessor" c4Type="Component" c4Technology="Spring Service" c4Description="регистрация событий, сохранение событий, подготовка данных состояния устройств" label="&lt;font style=&quot;font-size: 16px&quot;&gt;&lt;b&gt;%c4Name%&lt;/b&gt;&lt;/font&gt;&lt;div&gt;[%c4Type%: %c4Technology%]&lt;/div&gt;&lt;br&gt;&lt;div&gt;&lt;font style=&quot;font-size: 11px&quot;&gt;%c4Description%&lt;/font&gt;&lt;/div&gt;" id="6nfGbXrICxOpppsNLd3v-8">
          <mxCell style="rounded=1;whiteSpace=wrap;html=1;labelBackgroundColor=none;fillColor=#63BEF2;fontColor=#ffffff;align=center;arcSize=6;strokeColor=#2086C9;metaEdit=1;resizable=0;points=[[0.25,0,0],[0.5,0,0],[0.75,0,0],[1,0.25,0],[1,0.5,0],[1,0.75,0],[0.75,1,0],[0.5,1,0],[0.25,1,0],[0,0.75,0],[0,0.5,0],[0,0.25,0]];" parent="mg4Z7l3rav3BL5mE1RxC-15" vertex="1">
            <mxGeometry x="72.34449760765528" y="225" width="240" height="120" as="geometry" />
          </mxCell>
        </object>
        <object placeholders="1" c4Name="EventStore" c4Type="Component" c4Technology="Spring Service" c4Description="хранение событий" label="&lt;font style=&quot;font-size: 16px&quot;&gt;&lt;b&gt;%c4Name%&lt;/b&gt;&lt;/font&gt;&lt;div&gt;[%c4Type%: %c4Technology%]&lt;/div&gt;&lt;br&gt;&lt;div&gt;&lt;font style=&quot;font-size: 11px&quot;&gt;%c4Description%&lt;/font&gt;&lt;/div&gt;" id="6nfGbXrICxOpppsNLd3v-9">
          <mxCell style="rounded=1;whiteSpace=wrap;html=1;labelBackgroundColor=none;fillColor=#63BEF2;fontColor=#ffffff;align=center;arcSize=6;strokeColor=#2086C9;metaEdit=1;resizable=0;points=[[0.25,0,0],[0.5,0,0],[0.75,0,0],[1,0.25,0],[1,0.5,0],[1,0.75,0],[0.75,1,0],[0.5,1,0],[0.25,1,0],[0,0.75,0],[0,0.5,0],[0,0.25,0]];" parent="mg4Z7l3rav3BL5mE1RxC-15" vertex="1">
            <mxGeometry x="71.44019138755993" y="403" width="240" height="120" as="geometry" />
          </mxCell>
        </object>
        <object placeholders="1" c4Type="Relationship" c4Description="Состояние устройств" label="&lt;div style=&quot;text-align: left&quot;&gt;&lt;div style=&quot;text-align: center&quot;&gt;&lt;b&gt;%c4Description%&lt;/b&gt;&lt;/div&gt;" id="6nfGbXrICxOpppsNLd3v-71">
          <mxCell style="endArrow=blockThin;html=1;fontSize=10;fontColor=#404040;strokeWidth=1;endFill=1;strokeColor=#828282;elbow=vertical;metaEdit=1;endSize=14;startSize=14;jumpStyle=arc;jumpSize=16;rounded=0;edgeStyle=orthogonalEdgeStyle;" parent="mg4Z7l3rav3BL5mE1RxC-15" source="6nfGbXrICxOpppsNLd3v-8" target="6nfGbXrICxOpppsNLd3v-70" edge="1">
            <mxGeometry x="-0.1381" y="-1" width="240" relative="1" as="geometry">
              <mxPoint x="210" y="355" as="sourcePoint" />
              <mxPoint x="210" y="435" as="targetPoint" />
              <mxPoint as="offset" />
            </mxGeometry>
          </mxCell>
        </object>
        <object placeholders="1" c4Type="Relationship" c4Description="Событие" label="&lt;div style=&quot;text-align: left&quot;&gt;&lt;div style=&quot;text-align: center&quot;&gt;&lt;b&gt;%c4Description%&lt;/b&gt;&lt;/div&gt;" id="6nfGbXrICxOpppsNLd3v-10">
          <mxCell style="endArrow=blockThin;html=1;fontSize=10;fontColor=#404040;strokeWidth=1;endFill=1;strokeColor=#828282;elbow=vertical;metaEdit=1;endSize=14;startSize=14;jumpStyle=arc;jumpSize=16;rounded=0;edgeStyle=orthogonalEdgeStyle;" parent="mg4Z7l3rav3BL5mE1RxC-15" source="6nfGbXrICxOpppsNLd3v-8" target="6nfGbXrICxOpppsNLd3v-9" edge="1">
            <mxGeometry x="-0.125" width="240" relative="1" as="geometry">
              <mxPoint x="217.0334928229663" y="5" as="sourcePoint" />
              <mxPoint x="434.0669856459331" y="5" as="targetPoint" />
              <mxPoint as="offset" />
            </mxGeometry>
          </mxCell>
        </object>
        <object placeholders="1" c4Type="Relationship" c4Description="Конфигурация устройств дома" label="&lt;div style=&quot;text-align: left&quot;&gt;&lt;div style=&quot;text-align: center&quot;&gt;&lt;b&gt;%c4Description%&lt;/b&gt;&lt;/div&gt;" id="mg4Z7l3rav3BL5mE1RxC-16">
          <mxCell style="endArrow=blockThin;html=1;fontSize=10;fontColor=#404040;strokeWidth=1;endFill=1;strokeColor=#828282;elbow=vertical;metaEdit=1;endSize=14;startSize=14;jumpStyle=arc;jumpSize=16;rounded=0;edgeStyle=orthogonalEdgeStyle;curved=1;" parent="1" source="6nfGbXrICxOpppsNLd3v-4" target="6nfGbXrICxOpppsNLd3v-13" edge="1">
            <mxGeometry x="-0.1921" y="-80" width="240" relative="1" as="geometry">
              <mxPoint x="1996" y="-404" as="sourcePoint" />
              <mxPoint x="2164" y="149" as="targetPoint" />
              <Array as="points">
                <mxPoint x="2217" y="-442" />
              </Array>
              <mxPoint as="offset" />
            </mxGeometry>
          </mxCell>
        </object>
        <mxCell id="mg4Z7l3rav3BL5mE1RxC-17" value="" style="group" parent="1" vertex="1" connectable="0">
          <mxGeometry x="1558" y="427" width="363" height="458" as="geometry" />
        </mxCell>
        <object placeholders="1" c4Name="Сервис контроля устройств" c4Type="ContainerScopeBoundary" c4Application="Spring Boot" label="&lt;font style=&quot;font-size: 16px&quot;&gt;&lt;b&gt;&lt;div style=&quot;text-align: left&quot;&gt;%c4Name%&lt;/div&gt;&lt;/b&gt;&lt;/font&gt;&lt;div style=&quot;text-align: left&quot;&gt;[%c4Application%]&lt;/div&gt;" id="6nfGbXrICxOpppsNLd3v-5">
          <mxCell style="rounded=1;fontSize=11;whiteSpace=wrap;html=1;dashed=1;arcSize=20;fillColor=none;strokeColor=#666666;fontColor=#333333;labelBackgroundColor=none;align=left;verticalAlign=bottom;labelBorderColor=none;spacingTop=0;spacing=10;dashPattern=8 4;metaEdit=1;rotatable=0;perimeter=rectanglePerimeter;noLabel=0;labelPadding=0;allowArrows=0;connectable=0;expand=0;recursiveResize=0;editable=1;pointerEvents=0;absoluteArcSize=1;points=[[0.25,0,0],[0.5,0,0],[0.75,0,0],[1,0.25,0],[1,0.5,0],[1,0.75,0],[0.75,1,0],[0.5,1,0],[0.25,1,0],[0,0.75,0],[0,0.5,0],[0,0.25,0]];" parent="mg4Z7l3rav3BL5mE1RxC-17" vertex="1">
            <mxGeometry width="363" height="458" as="geometry" />
          </mxCell>
        </object>
        <object placeholders="1" c4Name="ScriptExecution" c4Type="Component" c4Technology="Spring Service" c4Description="Подготовка данных управления по сценарию пользователя" label="&lt;font style=&quot;font-size: 16px&quot;&gt;&lt;b&gt;%c4Name%&lt;/b&gt;&lt;/font&gt;&lt;div&gt;[%c4Type%: %c4Technology%]&lt;/div&gt;&lt;br&gt;&lt;div&gt;&lt;font style=&quot;font-size: 11px&quot;&gt;%c4Description%&lt;/font&gt;&lt;/div&gt;" id="6nfGbXrICxOpppsNLd3v-49">
          <mxCell style="rounded=1;whiteSpace=wrap;html=1;labelBackgroundColor=none;fillColor=#63BEF2;fontColor=#ffffff;align=center;arcSize=6;strokeColor=#2086C9;metaEdit=1;resizable=0;points=[[0.25,0,0],[0.5,0,0],[0.75,0,0],[1,0.25,0],[1,0.5,0],[1,0.75,0],[0.75,1,0],[0.5,1,0],[0.25,1,0],[0,0.75,0],[0,0.5,0],[0,0.25,0]];" parent="mg4Z7l3rav3BL5mE1RxC-17" vertex="1">
            <mxGeometry x="63" y="51" width="240" height="120" as="geometry" />
          </mxCell>
        </object>
        <object placeholders="1" c4Name="ScriptDataStore" c4Type="Component" c4Technology="Redis" c4Description="Хранение экземпляра сценария поведения" label="&lt;font style=&quot;font-size: 16px&quot;&gt;&lt;b&gt;%c4Name%&lt;/b&gt;&lt;/font&gt;&lt;div&gt;[%c4Type%: %c4Technology%]&lt;/div&gt;&lt;br&gt;&lt;div&gt;&lt;font style=&quot;font-size: 11px&quot;&gt;%c4Description%&lt;/font&gt;&lt;/div&gt;" id="mg4Z7l3rav3BL5mE1RxC-12">
          <mxCell style="rounded=1;whiteSpace=wrap;html=1;labelBackgroundColor=none;fillColor=#63BEF2;fontColor=#ffffff;align=center;arcSize=6;strokeColor=#2086C9;metaEdit=1;resizable=0;points=[[0.25,0,0],[0.5,0,0],[0.75,0,0],[1,0.25,0],[1,0.5,0],[1,0.75,0],[0.75,1,0],[0.5,1,0],[0.25,1,0],[0,0.75,0],[0,0.5,0],[0,0.25,0]];" parent="mg4Z7l3rav3BL5mE1RxC-17" vertex="1">
            <mxGeometry x="63" y="249" width="240" height="120" as="geometry" />
          </mxCell>
        </object>
        <object placeholders="1" c4Type="Relationship" id="mg4Z7l3rav3BL5mE1RxC-13">
          <mxCell style="endArrow=classic;html=1;fontSize=10;fontColor=#404040;strokeWidth=1;endFill=1;strokeColor=#828282;elbow=vertical;metaEdit=1;endSize=14;startSize=14;jumpStyle=arc;jumpSize=16;rounded=0;edgeStyle=orthogonalEdgeStyle;curved=1;startArrow=none;startFill=0;" parent="mg4Z7l3rav3BL5mE1RxC-17" source="6nfGbXrICxOpppsNLd3v-49" target="mg4Z7l3rav3BL5mE1RxC-12" edge="1">
            <mxGeometry width="240" relative="1" as="geometry">
              <mxPoint x="706" y="182" as="sourcePoint" />
              <mxPoint x="705" y="261" as="targetPoint" />
            </mxGeometry>
          </mxCell>
        </object>
        <object placeholders="1" c4Type="Relationship" c4Description="" label="&lt;div style=&quot;text-align: left&quot;&gt;&lt;div style=&quot;text-align: center&quot;&gt;&lt;b&gt;%c4Description%&lt;/b&gt;&lt;/div&gt;" id="mg4Z7l3rav3BL5mE1RxC-18">
          <mxCell style="endArrow=blockThin;html=1;fontSize=10;fontColor=#404040;strokeWidth=1;endFill=1;strokeColor=#828282;elbow=vertical;metaEdit=1;endSize=14;startSize=14;jumpStyle=arc;jumpSize=16;rounded=0;edgeStyle=orthogonalEdgeStyle;curved=1;" parent="1" source="6nfGbXrICxOpppsNLd3v-13" target="6nfGbXrICxOpppsNLd3v-8" edge="1">
            <mxGeometry x="-0.1306" y="-36" width="240" relative="1" as="geometry">
              <mxPoint x="1996" y="-432" as="sourcePoint" />
              <mxPoint x="2227" y="149" as="targetPoint" />
              <Array as="points">
                <mxPoint x="2227" y="208" />
              </Array>
              <mxPoint y="1" as="offset" />
            </mxGeometry>
          </mxCell>
        </object>
        <mxCell id="mg4Z7l3rav3BL5mE1RxC-19" value="" style="group" parent="1" vertex="1" connectable="0">
          <mxGeometry x="2111" y="423" width="333" height="467" as="geometry" />
        </mxCell>
        <object placeholders="1" c4Name="DataAnalysis" c4Type="Component" c4Technology="Spring Service" c4Description="Анализ данных, подготовка данных для мониторинга и управления" label="&lt;font style=&quot;font-size: 16px&quot;&gt;&lt;b&gt;%c4Name%&lt;/b&gt;&lt;/font&gt;&lt;div&gt;[%c4Type%: %c4Technology%]&lt;/div&gt;&lt;br&gt;&lt;div&gt;&lt;font style=&quot;font-size: 11px&quot;&gt;%c4Description%&lt;/font&gt;&lt;/div&gt;" id="6nfGbXrICxOpppsNLd3v-6">
          <mxCell style="rounded=1;whiteSpace=wrap;html=1;labelBackgroundColor=none;fillColor=#63BEF2;fontColor=#ffffff;align=center;arcSize=6;strokeColor=#2086C9;metaEdit=1;resizable=0;points=[[0.25,0,0],[0.5,0,0],[0.75,0,0],[1,0.25,0],[1,0.5,0],[1,0.75,0],[0.75,1,0],[0.5,1,0],[0.25,1,0],[0,0.75,0],[0,0.5,0],[0,0.25,0]];" parent="mg4Z7l3rav3BL5mE1RxC-19" vertex="1">
            <mxGeometry x="51" y="57" width="240" height="120" as="geometry" />
          </mxCell>
        </object>
        <object placeholders="1" c4Name="AnalysisDataStore" c4Type="Component" c4Technology="Postgres" c4Description="Хранение аналитических данных" label="&lt;font style=&quot;font-size: 16px&quot;&gt;&lt;b&gt;%c4Name%&lt;/b&gt;&lt;/font&gt;&lt;div&gt;[%c4Type%: %c4Technology%]&lt;/div&gt;&lt;br&gt;&lt;div&gt;&lt;font style=&quot;font-size: 11px&quot;&gt;%c4Description%&lt;/font&gt;&lt;/div&gt;" id="6nfGbXrICxOpppsNLd3v-54">
          <mxCell style="rounded=1;whiteSpace=wrap;html=1;labelBackgroundColor=none;fillColor=#63BEF2;fontColor=#ffffff;align=center;arcSize=6;strokeColor=#2086C9;metaEdit=1;resizable=0;points=[[0.25,0,0],[0.5,0,0],[0.75,0,0],[1,0.25,0],[1,0.5,0],[1,0.75,0],[0.75,1,0],[0.5,1,0],[0.25,1,0],[0,0.75,0],[0,0.5,0],[0,0.25,0]];" parent="mg4Z7l3rav3BL5mE1RxC-19" vertex="1">
            <mxGeometry x="51" y="256" width="240" height="120" as="geometry" />
          </mxCell>
        </object>
        <object placeholders="1" c4Name="Сервис анализа данных" c4Type="ContainerScopeBoundary" c4Application="Spring Boot" label="&lt;font style=&quot;font-size: 16px&quot;&gt;&lt;b&gt;&lt;div style=&quot;text-align: left&quot;&gt;%c4Name%&lt;/div&gt;&lt;/b&gt;&lt;/font&gt;&lt;div style=&quot;text-align: left&quot;&gt;[%c4Application%]&lt;/div&gt;" id="mg4Z7l3rav3BL5mE1RxC-8">
          <mxCell style="rounded=1;fontSize=11;whiteSpace=wrap;html=1;dashed=1;arcSize=20;fillColor=none;strokeColor=#666666;fontColor=#333333;labelBackgroundColor=none;align=left;verticalAlign=bottom;labelBorderColor=none;spacingTop=0;spacing=10;dashPattern=8 4;metaEdit=1;rotatable=0;perimeter=rectanglePerimeter;noLabel=0;labelPadding=0;allowArrows=0;connectable=0;expand=0;recursiveResize=0;editable=1;pointerEvents=0;absoluteArcSize=1;points=[[0.25,0,0],[0.5,0,0],[0.75,0,0],[1,0.25,0],[1,0.5,0],[1,0.75,0],[0.75,1,0],[0.5,1,0],[0.25,1,0],[0,0.75,0],[0,0.5,0],[0,0.25,0]];" parent="mg4Z7l3rav3BL5mE1RxC-19" vertex="1">
            <mxGeometry width="333" height="467" as="geometry" />
          </mxCell>
        </object>
        <object placeholders="1" c4Type="Relationship" id="6nfGbXrICxOpppsNLd3v-59">
          <mxCell style="endArrow=classic;html=1;fontSize=10;fontColor=#404040;strokeWidth=1;endFill=1;strokeColor=#828282;elbow=vertical;metaEdit=1;endSize=14;startSize=14;jumpStyle=arc;jumpSize=16;rounded=0;edgeStyle=orthogonalEdgeStyle;curved=1;startArrow=none;startFill=0;" parent="mg4Z7l3rav3BL5mE1RxC-19" source="6nfGbXrICxOpppsNLd3v-6" target="6nfGbXrICxOpppsNLd3v-54" edge="1">
            <mxGeometry width="240" relative="1" as="geometry">
              <mxPoint x="32" y="330" as="sourcePoint" />
              <mxPoint x="-68" y="220" as="targetPoint" />
            </mxGeometry>
          </mxCell>
        </object>
        <object placeholders="1" c4Type="Relationship" c4Description="" label="&lt;div style=&quot;text-align: left&quot;&gt;&lt;div style=&quot;text-align: center&quot;&gt;&lt;b&gt;%c4Description%&lt;/b&gt;&lt;/div&gt;" id="mg4Z7l3rav3BL5mE1RxC-20">
          <mxCell style="endArrow=blockThin;html=1;fontSize=10;fontColor=#404040;strokeWidth=1;endFill=1;strokeColor=#828282;elbow=vertical;metaEdit=1;endSize=14;startSize=14;jumpStyle=arc;jumpSize=16;rounded=0;edgeStyle=orthogonalEdgeStyle;curved=1;" parent="1" source="6nfGbXrICxOpppsNLd3v-13" target="6nfGbXrICxOpppsNLd3v-6" edge="1">
            <mxGeometry width="240" relative="1" as="geometry">
              <mxPoint x="2351" y="209" as="sourcePoint" />
              <mxPoint x="2647" y="209" as="targetPoint" />
              <Array as="points">
                <mxPoint x="2177" y="426" />
                <mxPoint x="2177" y="426" />
              </Array>
            </mxGeometry>
          </mxCell>
        </object>
        <object placeholders="1" c4Type="Relationship" c4Description="" label="&lt;div style=&quot;text-align: left&quot;&gt;&lt;div style=&quot;text-align: center&quot;&gt;&lt;b&gt;%c4Description%&lt;/b&gt;&lt;/div&gt;" id="mg4Z7l3rav3BL5mE1RxC-22">
          <mxCell style="endArrow=blockThin;html=1;fontSize=10;fontColor=#404040;strokeWidth=1;endFill=1;strokeColor=#828282;elbow=vertical;metaEdit=1;endSize=14;startSize=14;jumpStyle=arc;jumpSize=16;rounded=0;exitX=0.011;exitY=0.99;exitDx=0;exitDy=0;exitPerimeter=0;entryX=0.98;entryY=-0.013;entryDx=0;entryDy=0;entryPerimeter=0;" parent="1" source="6nfGbXrICxOpppsNLd3v-13" target="6nfGbXrICxOpppsNLd3v-49" edge="1">
            <mxGeometry width="240" relative="1" as="geometry">
              <mxPoint x="2187" y="269" as="sourcePoint" />
              <mxPoint x="2187" y="610" as="targetPoint" />
            </mxGeometry>
          </mxCell>
        </object>
        <object placeholders="1" c4Type="Relationship" c4Description="" label="&lt;div style=&quot;text-align: left&quot;&gt;&lt;div style=&quot;text-align: center&quot;&gt;&lt;b&gt;%c4Description%&lt;/b&gt;&lt;/div&gt;" id="mg4Z7l3rav3BL5mE1RxC-23">
          <mxCell style="endArrow=blockThin;html=1;fontSize=10;fontColor=#404040;strokeWidth=1;endFill=1;strokeColor=#828282;elbow=vertical;metaEdit=1;endSize=14;startSize=14;jumpStyle=arc;jumpSize=16;rounded=0;exitX=0.007;exitY=0.643;exitDx=0;exitDy=0;exitPerimeter=0;entryX=0.989;entryY=0.801;entryDx=0;entryDy=0;entryPerimeter=0;" parent="1" source="6nfGbXrICxOpppsNLd3v-13" target="6nfGbXrICxOpppsNLd3v-63" edge="1">
            <mxGeometry width="240" relative="1" as="geometry">
              <mxPoint x="2114" y="268" as="sourcePoint" />
              <mxPoint x="1866" y="486" as="targetPoint" />
            </mxGeometry>
          </mxCell>
        </object>
      </root>
    </mxGraphModel>
  </diagram>
</mxfile>
